# xmcd CD database file
#
# Track frame offsets:
#	150
#	47105
#	81640
#	124467
#	159378
#	194979
#	229519
#	261030
#	295146
#	325652
#
# Disc length: 4685 seconds
#
# Revision: 0
# Processed by: cddbd v1.5.2PL0 Copyright (c) Steve Scherf et al.
# Submitted via: cdripper 1,0,39,0213
#
DISCID=94124b0a
DTITLE=Carl Saunders - Can You Dig Being Dug
DYEAR=2005
DGENRE=Jazz
TTITLE0=There Will Never Be Another You
TTITLE1=Happy Go Lucky
TTITLE2=Can You Dig Being Dug?
TTITLE3=Yesterdays
TTITLE4=Calming Notion
TTITLE5=MIDI Evil Blues
TTITLE6=One Note Samba
TTITLE7=What Can I Say?
TTITLE8=The Girl From Cancun
TTITLE9=Blues On The Side
EXTD=YEAR: 2005
EXTT0=
EXTT1=
EXTT2=
EXTT3=
EXTT4=
EXTT5=
EXTT6=
EXTT7=
EXTT8=
EXTT9=
PLAYORDER=
